{"title":"Supernatural S03D3 (retail)(ENG+NL SUBS) RHoek 2Lions-Team","uid":5934871,"size":4658958058,"categoryP":"video","categoryS":"tv_shows","magnet":"?xt=urn:btih:988d0f50fc84e3246132507a7aab64e2fb1bde47&amp;dn=Supernatural+S03D3+%28retail%29%28ENG%2BNL+SUBS%29+RHoek+2Lions-Team&amp;tr=udp%3A%2F%2Ftracker.openbittorrent.com%3A80&amp;tr=udp%3A%2F%2Fopen.demonii.com%3A1337&amp;tr=udp%3A%2F%2Ftracker.coppersurfer.tk%3A6969&amp;tr=udp%3A%2F%2Fexodus.desync.com%3A6969","seeders":0,"leechers":0,"uploader":"RHoek-2lions","files":-1,"time":1288907564,"description":"FOR ENGLISH, PLEASE SCROLL DOWN!\n\n~~~~~~~~~~~~~~~~~~~~~~~~~~~~~~~~~~~~~~~~~~~~~~~~~~~~~~~~~\nVERHAALLIJN:\nÃ‚Â¯Ã‚Â¯Ã‚Â¯Ã‚Â¯Ã‚Â¯Ã‚Â¯Ã‚Â¯Ã‚Â¯Ã‚Â¯Ã‚Â¯Ã‚Â¯Ã‚Â¯\nDean en Sam zijn nog altijd op pad om een manier te vinden die ervoor kan zorgen dat Dean niet over een jaar naar Hel wordt meegenomen. Ze proberen onderweg ook de ene demon na de andere terug naar hel te sturen. Ondertussen is de jacht op Sam geopend. Demonenjagers, zoals Gordon Walker, zijn van mening dat sinds Sam is teruggekeerd van de dood, hij niet 100% goedaardig meer is, en uiteindelijk de wereld ten einde zal brengen. Bij deze gevechten krijgen de twee broers hulp van Ruby, een voormalige heks die een sterk staaltje vechtkunst kan neerzetten. Dean verliest echter z'n vertrouwen in haar als ze erachter komen dat Ruby al sinds De Plaag leeft, en dus al eeuwenoud is. Ze geeft toe een demon te zijn, maar staat aan de goede kant. Dean wil haar niet meer om zich heen hebben, omdat hij van mening is dat Ruby juist hun plan om Deans ziel te redden tegen wilt houden.\n\n~~~~~~~~~~~~~~~~~~~~~~~~~~~~~~~~~~~~~~~~~~~~~~~~~~~~~~~~~\n- Titel: Supernatural S03D3 (retail)(ENG+NL SUBS) RHoek 2Lions-Team\n- Bron: Retail\n- Formaat: DVD5 \n- Audio: 2.0\n- Taal: Engels\n- Ondertitelingen: Nederlands - Engels\n- Menu: Ja \n- Extra's: Nee\n- Cover: Nee\n- Label: Nee\n- Genre : Drama | Fantasy | Horror | Mystery | Thriller \n\nMet dank aan BasF1 - top gedaan!\n\nIMDb: http://www.imdb.com/title/tt0460681/\nOfficiÃƒÂ«le website: http://supernatural.warnerbros.com/\n\n~~~~~~~~~~~~~~~~~~~~~~~~~~~~~~~~~~~~~~~~~~~~~~~~~~~~~~~~~\nSTORY LINE:\nÃ‚Â¯Ã‚Â¯Ã‚Â¯Ã‚Â¯Ã‚Â¯Ã‚Â¯Ã‚Â¯Ã‚Â¯Ã‚Â¯Ã‚Â¯Ã‚Â¯\nThe season mainly focuses on trying to save Dean from his deal and tracking down the demons that were released from the gate. Along the way, the brothers meet a demon named Ruby, who has an interest in Sam and claims to be able to help save Dean. Also, they meet Bela Talbot, an &quot;acquirer&quot; and seller of occult objects, who is constantly a thorn in their side. The brothers eventually learn what demon holds Dean's contract; a being of great power named Lilith. The brothers, along with Ruby, track her down and attempt to kill her. Lilith is unable to stop Sam due to his mysterious abilities, however, Dean's contract expires and his soul is taken to Hell.\n\n~~~~~~~~~~~~~~~~~~~~~~~~~~~~~~~~~~~~~~~~~~~~~~~~~~~~~~~~~\n- Title: Supernatural S03D3 (retail)(ENG+NL SUBS) RHoek 2Lions-Team\n- Source: Retail\n- Format: DVD5 \n- Audio: 2.0\n- Language: Engels\n- Subtitles: Dutch - English\n- Menu: Yes \n- Extras: No\n- Cover: No\n- Label: No\n- Genre : Drama | Fantasy | Horror | Mystery | Thriller \n\nMany thanks to BasF1! Well done!\n\nIMDb: http://www.imdb.com/title/tt0460681/\nOfficial website: http://supernatural.warnerbros.com/\n\n~~~~~~~~~~~~~~~~~~~~~~~~~~~~~~~~~~~~~~~~~~~~~~~~~~~~~~~~~\nVIDEO AND AUDIO INFORMATION\nÃ‚Â¯Ã‚Â¯Ã‚Â¯Ã‚Â¯Ã‚Â¯Ã‚Â¯Ã‚Â¯Ã‚Â¯Ã‚Â¯Ã‚Â¯Ã‚Â¯Ã‚Â¯Ã‚Â¯Ã‚Â¯Ã‚Â¯Ã‚Â¯Ã‚Â¯Ã‚Â¯Ã‚Â¯Ã‚Â¯Ã‚Â¯Ã‚Â¯Ã‚Â¯Ã‚Â¯Ã‚Â¯Ã‚Â¯Ã‚Â¯Ã‚Â¯Ã‚Â¯Ã‚Â¯\nVideo\nID                               : 224 (0xE0)\nFormat                           : MPEG Video\nFormat version                   : Version 2\nFormat profile                   : Main@Main\nFormat settings, BVOP            : Yes\nFormat settings, Matrix          : Default\nDuration                         : 27mn 42s\nBit rate mode                    : Variable\nBit rate                         : 4 680 Kbps\nWidth                            : 720 pixels\nHeight                           : 576 pixels\nDisplay aspect ratio             : 16:9\nFrame rate                       : 25.000 fps\nStandard                         : PAL\nColor space                      : YUV\nChroma subsampling               : 4:2:0\nBit depth                        : 8 bits\nBits/(Pixel*Frame)               : 0.451\nStream size                      : 928 MiB (91%)\n\nAudio\nID                               : 128 (0x80)\nFormat                           : AC-3\nFormat/Info                      : Audio Coding 3\nMode extension                   : CM (complete main)\nDuration                         : 27mn 42s\nBit rate mode                    : Constant\nBit rate                         : 384 Kbps\nChannel(s)                       : 6 channels\nChannel positions                : Front: L C R, Side: L R, LFE\nSampling rate                    : 48.0 KHz\nBit depth                        : 16 bits\nStream size                      : 76.1 MiB (7%)\n\n*****************************************\nBrought to you by 2Lions Team\n******************************************","torrent":{"xt":"urn:btih:988d0f50fc84e3246132507a7aab64e2fb1bde47","amp;dn":"Supernatural+S03D3+%28retail%29%28ENG%2BNL+SUBS%29+RHoek+2Lions-Team","amp;tr":["udp%3A%2F%2Ftracker.openbittorrent.com%3A80","udp%3A%2F%2Fopen.demonii.com%3A1337","udp%3A%2F%2Ftracker.coppersurfer.tk%3A6969","udp%3A%2F%2Fexodus.desync.com%3A6969"],"infoHash":"988d0f50fc84e3246132507a7aab64e2fb1bde47","infoHashBuffer":{"type":"Buffer","data":[152,141,15,80,252,132,227,36,97,50,80,122,122,171,100,226,251,27,222,71]},"announce":[],"urlList":[]}}